<svg width="408" height="152" viewBox="0 0 408 152" xmlns="http://www.w3.org/2000/svg" xmlns:xlink="http://www.w3.org/1999/xlink"><title>Group 4</title><defs><path id="b" d="M0 0h400v144H0z"/><filter x="-1.5%" y="-4.2%" width="103%" height="108.3%" filterUnits="objectBoundingBox" id="a"><feOffset in="SourceAlpha" result="shadowOffsetOuter1"/><feGaussianBlur stdDeviation="2" in="shadowOffsetOuter1" result="shadowBlurOuter1"/><feColorMatrix values="0 0 0 0 0.278431373 0 0 0 0 0.317647059 0 0 0 0 0.317647059 0 0 0 0.5 0" in="shadowBlurOuter1"/></filter><linearGradient x1="100%" y1="50%" x2="0%" y2="50%" id="c"><stop stop-color="#60BDC0" stop-opacity=".5" offset="0%"/><stop stop-color="#53D78B" offset="100%"/></linearGradient><linearGradient x1="19.202%" y1="1.746%" x2="42.31%" y2="86.136%" id="d"><stop stop-color="#53D78B" stop-opacity=".5" offset="0%"/><stop stop-color="#60BDC0" offset="100%"/></linearGradient></defs><g fill="none" fill-rule="evenodd"><g transform="translate(4 4)"><use fill="#000" filter="url(#a)" xlink:href="#b"/><use fill="#FFF" xlink:href="#b"/></g><path d="M400.494 142a15.973 15.973 0 0 1-12.499 6H20.005a15.979 15.979 0 0 1-12.495-6h392.984z"/><path d="M400 14.072C349.536-2.215 117.377 11.76 0 26.562V0h400v14.072z" fill-opacity=".5" fill="url(#c)" transform="translate(4 4)"/><path d="M400 131.072c-50.464-16.287-282.623-2.312-400 12.49V117h400v14.072z" fill-opacity=".5" fill="url(#d)" transform="rotate(180 201.94 132.28)"/></g></svg>