<svg width="770" height="231" viewBox="0 0 770 231" xmlns="http://www.w3.org/2000/svg"><title>mask</title><defs><linearGradient x1="23.97%" y1="76.407%" x2="81.975%" y2="100%" id="a"><stop stop-color="#C5243F" offset="0%"/><stop stop-color="#7456CF" offset="100%"/></linearGradient></defs><g fill="none" fill-rule="evenodd"><path d="M1489.391 107.774l12.594.917 208.046 318.89 65.153 649.294-223.493 269.323s-503.106 91.174-866.932-205.521c-9.908-8.08-19.243-16.025-28.03-23.84l1.03.84c363.826 296.695 866.932 205.521 866.932 205.521l223.493-269.323-65.153-649.294-193.64-296.807zM591.808 377.975C441.731 267.622 123.572 271.377 38.366 174.358c119.806 79.495 429.586 80.23 553.442 203.617z" fill="url(#a)" transform="translate(-670 -1129)"/><path d="M-670-1024.099c0 189.072 583.78 112.549 648.334 361.444C42.887-413.761-366.067-299.018-2.241-2.323s866.932 205.521 866.932 205.521l223.493-269.323-65.153-649.294-208.046-318.89-749.754-54.628S-670-1213.171-670-1024.1z" fill="#FFF"/></g></svg>