<?xml version="1.0" encoding="UTF-8"?>
<svg width="12px" height="16px" viewBox="0 0 12 16" version="1.1" xmlns="http://www.w3.org/2000/svg" xmlns:xlink="http://www.w3.org/1999/xlink">
    <!-- Generator: Sketch 49.3 (51167) - http://www.bohemiancoding.com/sketch -->
    <title>location</title>
    <desc>Created with Sketch.</desc>
    <defs></defs>
    <g id="Welcome" stroke="none" stroke-width="1" fill="none" fill-rule="evenodd">
        <g id="Desktop-HD-::-Contact" transform="translate(-34.000000, -217.000000)" fill="#FFFFFF">
            <g id="Info" transform="translate(32.000000, 96.000000)">
                <path d="M8.00017391,128.408522 C7.14469565,128.408522 6.44886957,127.69287 6.44886957,126.813217 C6.44886957,125.933565 7.14469565,125.217913 8.00017391,125.217913 C8.85565217,125.217913 9.55182609,125.933565 9.55182609,126.813217 C9.55182609,127.69287 8.85565217,128.408522 8.00017391,128.408522 M8.00017391,124.000522 C6.47356522,124.000522 5.23147826,125.262261 5.23147826,126.813217 C5.23147826,128.364174 6.47356522,129.625913 8.00017391,129.625913 C9.52695652,129.625913 10.7692174,128.364174 10.7692174,126.813217 C10.7692174,125.262261 9.52695652,124.000522 8.00017391,124.000522 M7.99947826,135.284522 C7.5293913,134.762783 6.7866087,133.893217 6.04678261,132.844 C4.48017391,130.622261 3.65217391,128.630435 3.65217391,127.083826 C3.65217391,122.729739 6.98,122.391304 8,122.391304 C12.0342609,122.391304 12.3478261,125.982957 12.3478261,127.083826 C12.3478261,130.145913 9.23252174,133.913391 7.99947826,135.284522 M11.9041739,122.380522 C10.9052174,121.490435 9.5186087,121 8,121 C6.4813913,121 5.09478261,121.490435 4.09582609,122.380522 C2.89530435,123.450435 2.26086957,125.076696 2.26086957,127.083826 C2.26086957,131.455652 7.292,136.578435 7.50608696,136.794261 C7.63669565,136.926087 7.8146087,137 8,137 C8.1853913,137 8.36330435,136.926087 8.49391304,136.794261 C8.708,136.578435 13.7391304,131.455652 13.7391304,127.083826 C13.7391304,125.076696 13.1046957,123.450435 11.9041739,122.380522" id="location"></path>
            </g>
        </g>
    </g>
</svg>