<svg width="72" height="72" viewBox="0 0 72 72" xmlns="http://www.w3.org/2000/svg"><title>icn::addToCart_green</title><g fill="none" fill-rule="evenodd"><path d="M67.86 36c0 17.587-14.273 31.86-31.86 31.86S4.14 53.586 4.14 36 18.414 4.14 36 4.14 67.86 18.414 67.86 36z" fill="#60BDC0"/><path d="M45.72 44.93c-.636 0-1.253.253-1.7.697a2.396 2.396 0 0 0-.703 1.688 2.4 2.4 0 0 0 .702 1.689 2.424 2.424 0 0 0 1.7.697c.632 0 1.25-.253 1.697-.697a2.401 2.401 0 0 0 .706-1.689 2.4 2.4 0 0 0-.706-1.688 2.42 2.42 0 0 0-1.697-.697m-13.263 0a2.43 2.43 0 0 0-1.7.697 2.396 2.396 0 0 0-.702 1.688 2.4 2.4 0 0 0 .702 1.689 2.43 2.43 0 0 0 1.7.697 2.42 2.42 0 0 0 1.696-.697 2.401 2.401 0 0 0 .706-1.689 2.4 2.4 0 0 0-.706-1.688 2.42 2.42 0 0 0-1.696-.697m20.476-15.918l-3.95 12.484a2.094 2.094 0 0 1-2.01 1.46h-15.27c-.876 0-1.729-.542-2.034-1.357l-5.817-15.642h-3.374A1.482 1.482 0 0 1 19 24.478c0-.81.662-1.478 1.478-1.478h4.395c.614 0 1.169.423 1.387.993L32.292 40h14.056l3.16-9.978H32.085a1.482 1.482 0 0 1-1.479-1.479c0-.81.662-1.478 1.479-1.478h19.436c.47 0 .913.25 1.191.627.28.377.36.874.219 1.32" fill="#FFF"/></g></svg>