<?xml version="1.0" encoding="UTF-8"?>
<svg width="16px" height="10px" viewBox="0 0 16 10" version="1.1" xmlns="http://www.w3.org/2000/svg" xmlns:xlink="http://www.w3.org/1999/xlink">
    <!-- Generator: Sketch 49.3 (51167) - http://www.bohemiancoding.com/sketch -->
    <title>mail</title>
    <desc>Created with Sketch.</desc>
    <defs></defs>
    <g id="Welcome" stroke="none" stroke-width="1" fill="none" fill-rule="evenodd">
        <g id="Desktop-HD-::-Contact" transform="translate(-32.000000, -196.000000)" fill="#FFFFFF">
            <g id="Info" transform="translate(32.000000, 96.000000)">
                <path d="M1.39130435,108.304348 L1.39130435,102.382957 L7.58521739,106.982261 C7.70834783,107.073739 7.85408696,107.119478 8,107.119478 C8.14573913,107.119478 8.29147826,107.073739 8.4146087,106.982261 L14.6086957,102.382957 L14.6086957,108.304348 L1.39130435,108.304348 Z M13.2006957,101.695652 L8,105.557391 L2.79930435,101.695652 L13.2006957,101.695652 Z M15.9984348,100.985043 C15.997913,100.95913 15.994087,100.933391 15.9907826,100.907652 C15.988,100.887652 15.9866087,100.867478 15.9822609,100.848 C15.9772174,100.825913 15.9692174,100.804522 15.961913,100.782783 C15.9547826,100.76087 15.9485217,100.738783 15.9391304,100.717739 C15.9311304,100.699826 15.9203478,100.682783 15.9106087,100.665217 C15.897913,100.642435 15.8857391,100.619478 15.8706087,100.598261 C15.8676522,100.594087 15.865913,100.589391 15.8627826,100.585217 C15.8533913,100.572522 15.8417391,100.562783 15.8314783,100.550783 C15.8153043,100.532 15.7994783,100.513043 15.7813913,100.495826 C15.7646957,100.48 15.7469565,100.466609 15.7290435,100.452696 C15.7114783,100.438957 15.6942609,100.425391 15.6753043,100.413391 C15.6558261,100.401043 15.6353043,100.390783 15.6147826,100.380522 C15.5951304,100.370609 15.5756522,100.360696 15.5549565,100.352696 C15.5332174,100.344348 15.5109565,100.338261 15.4883478,100.332 C15.4674783,100.326261 15.4471304,100.320348 15.4255652,100.316522 C15.4,100.312 15.3744348,100.310435 15.3485217,100.30887 C15.3335652,100.307826 15.3194783,100.304348 15.3043478,100.304348 L0.695652174,100.304348 C0.680347826,100.304348 0.665913043,100.307826 0.650782609,100.30887 C0.625217391,100.310609 0.599826087,100.312174 0.574608696,100.316522 C0.552869565,100.320348 0.532173913,100.326435 0.511304348,100.332174 C0.488869565,100.338435 0.466782609,100.344348 0.445217391,100.352696 C0.424347826,100.360696 0.404869565,100.370609 0.385217391,100.380522 C0.364521739,100.390957 0.344173913,100.401043 0.324695652,100.413391 C0.30573913,100.425391 0.288521739,100.438957 0.270956522,100.452696 C0.253043478,100.466609 0.235304348,100.48 0.218608696,100.495826 C0.200521739,100.513043 0.184695652,100.532 0.168521739,100.550783 C0.158434783,100.562783 0.146608696,100.572522 0.137217391,100.585217 C0.134086957,100.589391 0.132347826,100.594087 0.129391304,100.598261 C0.11426087,100.619478 0.102086957,100.642261 0.0893913043,100.665217 C0.0796521739,100.682783 0.0688695652,100.699826 0.0608695652,100.717913 C0.0516521739,100.738783 0.0453913043,100.76087 0.0380869565,100.782609 C0.0309565217,100.804348 0.0227826087,100.825913 0.0177391304,100.848 C0.0133913043,100.867478 0.012,100.887652 0.00939130435,100.907652 C0.00591304348,100.933391 0.00208695652,100.95913 0.00156521739,100.985043 C0.00139130435,100.990087 0,100.994783 0,101 L0,109 C0,109.384174 0.311478261,109.695652 0.695652174,109.695652 L15.3043478,109.695652 C15.6885217,109.695652 16,109.384174 16,109 L16,101 C16,100.994783 15.9986087,100.990087 15.9984348,100.985043 L15.9984348,100.985043 Z" id="mail"></path>
            </g>
        </g>
    </g>
</svg>