<svg width="48" height="48" viewBox="0 0 48 48" xmlns="http://www.w3.org/2000/svg"><title>icn::wishlist_green</title><g fill="#E1C07E" fill-rule="evenodd"><path d="M43.912 24c0 10.992-8.92 19.912-19.912 19.912-10.992 0-19.912-8.92-19.912-19.912 0-10.992 8.92-19.912 19.912-19.912 10.992 0 19.912 8.92 19.912 19.912zm-14.294 9.09a.908.908 0 0 0 .875-1.155l-1.604-5.686 4.789-4.048a.909.909 0 0 0-.522-1.601l-5.744-.413-2.585-5.656a.91.91 0 0 0-1.654 0l-2.585 5.656-5.744.413a.909.909 0 0 0-.522 1.6l4.79 4.049-1.605 5.686a.91.91 0 0 0 1.369 1.01L24 29.625l5.124 3.32c.15.097.323.146.494.146z"/><path d="M24 27.633c.172 0 .344.048.494.146l3.594 2.328-1.108-3.928a.91.91 0 0 1 .288-.94l3.531-2.986-4.055-.292a.91.91 0 0 1-.762-.528L24 17.096l-1.982 4.337a.91.91 0 0 1-.762.528l-4.055.292 3.53 2.985a.91.91 0 0 1 .289.941l-1.108 3.928 3.594-2.328a.908.908 0 0 1 .494-.146"/></g></svg>