<svg width="72" height="72" viewBox="0 0 72 72" xmlns="http://www.w3.org/2000/svg"><title>icn::scroll_green_alt</title><g fill="none" fill-rule="evenodd"><path d="M67.86 36c0 17.587-14.273 31.86-31.86 31.86S4.14 53.586 4.14 36 18.414 4.14 36 4.14 67.86 18.414 67.86 36z" fill="#60BDC0"/><g stroke="#FFF" stroke-width="3"><path d="M23.608 25.656c.14-1.237.462-2.44 1.01-3.591 1-2.087 2.538-3.656 4.624-4.689 1.667-.817 3.43-1.193 5.258-1.311.118-.011.226-.043.344-.054h2.032c.796.107 1.602.172 2.387.322 2.172.398 4.13 1.258 5.732 2.796 1.699 1.634 2.677 3.656 3.032 5.979.118.752.161 1.526.161 2.29.01 2.516.01 5.043.01 7.559m.012 3.946v5.925c0 1.796-.323 3.516-1.097 5.14-1 2.075-2.516 3.645-4.602 4.656-2.377 1.16-4.914 1.451-7.527 1.354-1.979-.075-3.903-.44-5.7-1.311-2.45-1.194-4.107-3.097-5.064-5.635-.516-1.376-.71-2.817-.71-4.29V28.043"/><path d="M34.231 26.516c0 .57-.01 1.14 0 1.72.022.98.7 1.689 1.613 1.7.936.01 1.645-.7 1.656-1.7.01-1.118.01-2.236 0-3.354-.01-.979-.699-1.688-1.613-1.7-.935-.01-1.634.71-1.656 1.7-.01.548 0 1.086 0 1.634z"/></g></g></svg>