<?xml version="1.0" encoding="UTF-8"?>
<svg width="10px" height="16px" viewBox="0 0 10 16" version="1.1" xmlns="http://www.w3.org/2000/svg" xmlns:xlink="http://www.w3.org/1999/xlink">
    <!-- Generator: Sketch 49.3 (51167) - http://www.bohemiancoding.com/sketch -->
    <title>device-mobile</title>
    <desc>Created with Sketch.</desc>
    <defs></defs>
    <g id="Welcome" stroke="none" stroke-width="1" fill="none" fill-rule="evenodd">
        <g id="Desktop-HD-::-Contact" transform="translate(-35.000000, -169.000000)" fill="#FFFFFF">
            <g id="Info" transform="translate(32.000000, 96.000000)">
                <path d="M4.86956522,87.6086957 L11.1304348,87.6086957 L11.1304348,84.6521739 L4.86956522,84.6521739 L4.86956522,87.6086957 Z M4.86956522,83.6086957 L11.1304348,83.6086957 L11.1304348,74.3913043 L4.86956522,74.3913043 L4.86956522,83.6086957 Z M12.5217391,74.3217391 L12.5217391,87.6782609 C12.5217391,88.4071304 11.9288696,89 11.2,89 L4.8,89 C4.07113043,89 3.47826087,88.4071304 3.47826087,87.6782609 L3.47826087,74.3217391 C3.47826087,73.5928696 4.07113043,73 4.8,73 L11.2,73 C11.9288696,73 12.5217391,73.5928696 12.5217391,74.3217391 L12.5217391,74.3217391 Z M9.19095652,86.2173913 C9.19095652,86.5055652 8.9573913,86.7391304 8.66921739,86.7391304 L7.33043478,86.7391304 C7.04226087,86.7391304 6.80869565,86.5055652 6.80869565,86.2173913 C6.80869565,85.9292174 7.04226087,85.6956522 7.33043478,85.6956522 L8.66921739,85.6956522 C8.9573913,85.6956522 9.19095652,85.9292174 9.19095652,86.2173913 L9.19095652,86.2173913 Z" id="device-mobile"></path>
            </g>
        </g>
    </g>
</svg>