<?xml version="1.0" encoding="UTF-8"?>
<svg width="16px" height="16px" viewBox="0 0 16 16" version="1.1" xmlns="http://www.w3.org/2000/svg" xmlns:xlink="http://www.w3.org/1999/xlink">
    <!-- Generator: Sketch 49.3 (51167) - http://www.bohemiancoding.com/sketch -->
    <title>pin</title>
    <desc>Created with Sketch.</desc>
    <defs></defs>
    <g id="Welcome" stroke="none" stroke-width="1" fill="none" fill-rule="evenodd">
        <g id="Desktop-HD-::-Contact" transform="translate(-32.000000, -241.000000)" fill="#FFFFFF">
            <g id="Info" transform="translate(32.000000, 96.000000)">
                <path d="M8.73805936,153.746907 C8.76258126,153.801516 8.97719142,154.297172 8.96171305,154.842045 C8.95232168,155.172134 8.68171115,155.433527 8.35370892,155.433527 C8.34779584,155.433527 8.34188275,155.433353 8.33596967,155.43318 C7.99996739,155.423788 7.73526994,155.143612 7.74483522,154.807436 C7.75127005,154.582391 7.66118248,154.323085 7.62587789,154.242041 C7.49213785,153.935082 7.6309214,153.576123 7.93735827,153.440644 C8.24309947,153.305165 8.60084104,153.441166 8.73805936,153.746907 M12.86087,149.982012 C12.5954769,149.858011 12.2810399,149.912968 12.0737342,150.1201 L9.46206428,152.73177 C9.26414989,152.92951 9.20484514,153.228469 9.31023716,153.487427 C9.31336761,153.495253 9.62676105,154.276302 9.68015272,155.287266 C9.73319655,156.292142 9.51997771,157.153191 9.04536579,157.8565 L6.09491097,154.905872 C6.09473705,154.905698 6.09473705,154.905698 6.09456314,154.905524 L6.0940414,154.905002 L3.14358657,151.954547 C5.00672966,150.696104 7.40152854,151.644806 7.51074667,151.68898 C7.77074844,151.796285 8.06935916,151.736633 8.26814312,151.538023 L10.879813,148.926179 C11.0869449,148.719047 11.1420757,148.404436 11.0179009,148.139217 C10.7747688,147.619909 10.863639,147.139558 11.0170314,146.785295 L14.2144444,149.982708 C13.8598333,150.136274 13.3794822,150.22497 12.86087,149.982012 M15.7963682,149.596966 L11.4031209,145.203545 C11.1314669,144.932239 10.6909422,144.932065 10.4192882,145.203545 C10.3603312,145.262502 9.09388786,146.556424 9.58049986,148.257826 L7.59161679,150.246883 C6.50413114,149.916794 3.69176421,149.345486 1.62114145,151.415935 C1.34948743,151.687763 1.34948743,152.128114 1.62114145,152.399768 L4.61872703,155.397353 L0.203740514,159.812514 C-0.0679135048,160.084168 -0.0679135048,160.524519 0.203740514,160.796346 C0.339567524,160.932173 0.51765569,161 0.695569943,161 C0.873658109,161 1.05174628,160.932173 1.18757328,160.796346 L5.6025598,156.38136 L8.60014538,159.378946 C8.73597239,159.514599 8.91406055,159.582599 9.09214872,159.582599 C9.27023689,159.582599 9.44815114,159.514599 9.58397815,159.378946 C11.654427,157.308323 11.0832927,154.495956 10.7530296,153.40847 L12.7420866,151.419413 C14.4438372,151.906373 15.7374113,150.639582 15.7963682,150.580625 C16.0680222,150.308971 16.0680222,149.86862 15.7963682,149.596966" id="pin"></path>
            </g>
        </g>
    </g>
</svg>