<?xml version="1.0" encoding="UTF-8"?>
<svg width="28px" height="28px" viewBox="0 0 28 28" version="1.1" xmlns="http://www.w3.org/2000/svg" xmlns:xlink="http://www.w3.org/1999/xlink">
    <!-- Generator: Sketch 49.3 (51167) - http://www.bohemiancoding.com/sketch -->
    <title>icn::pricetag</title>
    <desc>Created with Sketch.</desc>
    <defs>
        <filter x="-1.5%" y="-0.8%" width="103.1%" height="101.5%" filterUnits="objectBoundingBox" id="filter-1">
            <feOffset dx="0" dy="0" in="SourceAlpha" result="shadowOffsetOuter1"></feOffset>
            <feGaussianBlur stdDeviation="3" in="shadowOffsetOuter1" result="shadowBlurOuter1"></feGaussianBlur>
            <feColorMatrix values="0 0 0 0 0.278431373   0 0 0 0 0.317647059   0 0 0 0 0.317647059  0 0 0 0.5 0" type="matrix" in="shadowBlurOuter1" result="shadowMatrixOuter1"></feColorMatrix>
            <feMerge>
                <feMergeNode in="shadowMatrixOuter1"></feMergeNode>
                <feMergeNode in="SourceGraphic"></feMergeNode>
            </feMerge>
        </filter>
    </defs>
    <g id="Welcome" stroke="none" stroke-width="1" fill="none" fill-rule="evenodd">
        <g id="Desktop-HD-::-Shop" transform="translate(-210.000000, -642.000000)" fill="#FFFFFF">
            <g id="Content" filter="url(#filter-1)" transform="translate(208.000000, 180.000000)">
                <g id="item_card-copy-3" transform="translate(0.000000, 262.000000)">
                    <g id="card_price" transform="translate(8.000000, 204.000000)">
                        <path d="M12.2818788,6.11111406 C12.1997927,6.19872937 12.0858077,6.25316994 11.9594886,6.25316994 C11.7077009,6.25316994 11.5043994,6.03540764 11.5043994,5.76703262 C11.5043994,5.60753874 11.5809564,5.47313857 11.6919642,5.38424732 C11.7974428,5.28684973 11.8837821,5.1558521 11.9543848,5.00869242 C11.5907387,5.10566469 11.3215131,5.43400941 11.3215131,5.82742763 C11.3215131,6.29697759 11.7025971,6.67806162 12.1721471,6.67806162 C12.6421223,6.67806162 13.022781,6.29697759 13.022781,5.82742763 C13.022781,5.62625269 12.9504772,5.44421702 12.833515,5.29833329 C12.571945,5.95629868 12.2818788,6.11111406 12.2818788,6.11111406 Z M16,4.28863075 L13.7113693,2 L11.9195088,2 C11.9935139,2.18884075 12.0998432,2.34961057 12.2278636,2.46784869 L12.2278636,2.46784869 C12.2453016,2.48188415 12.2669927,2.49039049 12.2818788,2.50697786 L12.2895345,2.49932215 C12.7322895,2.91315559 13.0232064,3.56601717 13.0232064,4.30862064 C13.0232064,4.32648396 13.0189532,4.34222069 13.0181026,4.35965868 C13.527207,4.65355273 13.8738403,5.19753316 13.8738403,5.82785295 C13.8738403,6.76737819 13.1120976,7.52912092 12.1725724,7.52912092 C11.2330471,7.52912092 10.4713044,6.76737819 10.4713044,5.82785295 C10.4713044,4.91469736 11.1922167,4.17549642 12.0960153,4.13424068 C12.0577368,3.75655919 11.9084505,3.43331827 11.6923895,3.23341928 C11.6749515,3.21938382 11.6532603,3.21087748 11.6375236,3.19429012 L11.6307185,3.20194583 C11.3142827,2.90635051 11.0807836,2.48528669 10.9702012,2 L9.35697387,2 L0,11.3569739 L6.64302613,18 L16,8.64302613 L16,4.28863075 Z M3.78744783,10.6275552 C3.94991892,10.4655095 4.21276483,10.4655095 4.3748106,10.6275552 L7.37287009,13.6256147 C7.53491587,13.7876605 7.53491587,14.0505064 7.37287009,14.2129775 C7.21082432,14.3750233 6.9475531,14.3750233 6.78550732,14.2129775 L3.78744783,11.214918 C3.62540206,11.0528722 3.62540206,10.7900263 3.78744783,10.6275552 Z M5.48871581,8.92628725 C5.6511869,8.76424147 5.9140328,8.76424147 6.07607858,8.92628725 L9.07371275,11.9243467 C9.23575853,12.0863925 9.23575853,12.3492384 9.07371275,12.5117095 C8.91166698,12.6737553 8.64839576,12.6737553 8.48634998,12.5117095 L5.48871581,9.51365002 C5.32667003,9.35160424 5.32667003,9.08875834 5.48871581,8.92628725 Z" id="icn::pricetag"></path>
                    </g>
                </g>
            </g>
        </g>
    </g>
</svg>