<?xml version="1.0" encoding="UTF-8"?>
<svg width="64px" height="64px" viewBox="0 0 64 64" version="1.1" xmlns="http://www.w3.org/2000/svg" xmlns:xlink="http://www.w3.org/1999/xlink">
    <!-- Generator: Sketch 49.3 (51167) - http://www.bohemiancoding.com/sketch -->
    <title>icn::addToCart_green</title>
    <desc>Created with Sketch.</desc>
    <defs></defs>
    <g id="Symbols" stroke="none" stroke-width="1" fill="none" fill-rule="evenodd">
        <g id="icn::addToCart_green">
            <g>
                <path d="M63.8592,32 C63.8592,49.5872379 49.5872379,63.8592 32,63.8592 C14.4127621,63.8592 0.1408,49.5872379 0.1408,32 C0.1408,14.4127621 14.4127621,0.1408 32,0.1408 C49.5872379,0.1408 63.8592,14.4127621 63.8592,32 Z" id="Shape" fill="#60BDC0"></path>
                <path d="M41.7194846,40.9299339 C41.0838344,40.9299339 40.4666623,41.1830853 40.0194898,41.6273013 C39.5723172,42.0711478 39.317318,42.6879503 39.317318,43.3154702 C39.317318,43.94299 39.5723172,44.5594229 40.0194898,45.0040085 C40.4666623,45.447855 41.0838344,45.7010064 41.7194846,45.7010064 C42.3514393,45.7010064 42.9686113,45.447855 43.4157839,45.0040085 C43.8629564,44.5594229 44.1216513,43.94299 44.1216513,43.3154702 C44.1216513,42.6879503 43.8629564,42.0711478 43.4157839,41.6273013 C42.9686113,41.1830853 42.3514393,40.9299339 41.7194846,40.9299339 M28.455829,40.9299339 C27.8238744,40.9299339 27.2030067,41.1830853 26.7558341,41.6273013 C26.3086616,42.0711478 26.0536623,42.6879503 26.0536623,43.3154702 C26.0536623,43.94299 26.3086616,44.5594229 26.7558341,45.0040085 C27.2030067,45.447855 27.8238744,45.7010064 28.455829,45.7010064 C29.0877836,45.7010064 29.7049557,45.447855 30.1521282,45.0040085 C30.5993008,44.5594229 30.8579957,43.94299 30.8579957,43.3154702 C30.8579957,42.6879503 30.5993008,42.0711478 30.1521282,41.6273013 C29.7049557,41.1830853 29.0877836,40.9299339 28.455829,40.9299339 M48.9318977,25.0124384 L44.9819965,37.4963138 C44.7040843,38.3725503 43.8962172,38.9564616 42.9711983,38.9564616 L27.7030269,38.9564616 C26.82716,38.9564616 25.974206,38.4139415 25.6685765,37.598683 L19.8520071,21.9565128 L16.4782564,21.9565128 C15.6618893,21.9565128 15,21.2890801 15,20.4782564 C15,19.6678023 15.6618893,19 16.4782564,19 L20.8727432,19 C21.4869587,19 22.042044,19.4227813 22.2597172,19.9933883 L28.2924817,35.9999487 L42.3484827,35.9999487 L45.5071471,26.021718 L28.0855258,26.021718 C27.2691587,26.021718 26.6072693,25.3542852 26.6072693,24.5434615 C26.6072693,23.7330075 27.2691587,23.0652051 28.0855258,23.0652051 L47.5216411,23.0652051 C47.9924657,23.0652051 48.434834,23.3154 48.7134853,23.6923554 C48.9921366,24.0693108 49.0730712,24.5663745 48.9318977,25.0124384" id="cart" fill="#FFFFFF"></path>
            </g>
        </g>
    </g>
</svg>