<?xml version="1.0" encoding="UTF-8"?>
<svg width="48px" height="48px" viewBox="0 0 48 48" version="1.1" xmlns="http://www.w3.org/2000/svg" xmlns:xlink="http://www.w3.org/1999/xlink">
    <!-- Generator: Sketch 49.3 (51167) - http://www.bohemiancoding.com/sketch -->
    <title>icn::wishlist_green</title>
    <desc>Created with Sketch.</desc>
    <defs></defs>
    <g id="Welcome" stroke="none" stroke-width="1" fill="none" fill-rule="evenodd">
        <g id="Desktop-HD-::-Popular" transform="translate(-474.000000, -677.000000)" fill="#E1C07E">
            <g id="carousel_2" transform="translate(0.000000, 93.000000)">
                <g id="Item-card-Copy-3" transform="translate(211.000000, 142.000000)">
                    <g id="card_footer" transform="translate(0.000000, 388.000000)">
                        <g id="icn::wishlist_yellow" transform="translate(267.000000, 58.000000)">
                            <g>
                                <path d="M39.912,20 C39.912,30.9920237 30.9920237,39.912 20,39.912 C9.00797634,39.912 0.088,30.9920237 0.088,20 C0.088,9.00797634 9.00797634,0.088 20,0.088 C30.9920237,0.088 39.912,9.00797634 39.912,20 Z M25.6181825,29.0909115 C25.8084098,29.0909115 25.9979553,29.031366 26.1579553,28.9134114 C26.4625008,28.688866 26.5959099,28.2990932 26.4931826,27.934775 L24.8888642,22.2488652 L29.6777285,18.2009101 C29.9600012,17.9622737 30.069774,17.5765918 29.9552285,17.2250009 C29.840683,16.8736372 29.5247739,16.6263645 29.1561375,16.6000008 L23.4120459,16.1865917 L20.8268183,10.5311364 C20.6788637,10.2075 20.3556819,10 20,10 C19.6443181,10 19.3211363,10.2075 19.1731817,10.5311364 L16.5879541,16.1865917 L10.8438625,16.6000008 C10.4752261,16.6263645 10.159317,16.8736372 10.0447715,17.2250009 C9.93022602,17.5765918 10.0399988,17.9622737 10.3222715,18.2009101 L15.1111358,22.2488652 L13.5068174,27.934775 C13.4040901,28.2990932 13.5374992,28.688866 13.8420447,28.9134114 C14.1465902,29.1377296 14.5581811,29.1504569 14.8759085,28.9447751 L20,25.6247747 L25.1240915,28.9447751 C25.2747734,29.0422751 25.4465916,29.0909115 25.6181825,29.0909115 Z" id="Combined-Shape"></path>
                                <path d="M20,23.6325017 C20.1720455,23.6325017 20.3438637,23.6811381 20.4943182,23.7786381 L24.0884096,26.1072747 L22.9800004,22.1793197 C22.8831822,21.8363651 22.9959095,21.4684105 23.2681822,21.2381832 L26.799319,18.2531828 L22.743864,17.9613646 C22.4125003,17.937501 22.1204548,17.7347737 21.982273,17.4327282 L20,13.0956822 L18.017727,17.4327282 C17.8795452,17.7347737 17.5874997,17.937501 17.256136,17.9613646 L13.200681,18.2531828 L16.7318178,21.2381832 C17.0040905,21.4684105 17.1168178,21.8363651 17.0199996,22.1793197 L15.9115904,26.1072747 L19.5056818,23.7786381 C19.6561363,23.6811381 19.8279545,23.6325017 20,23.6325017" id="star"></path>
                            </g>
                        </g>
                    </g>
                </g>
            </g>
        </g>
    </g>
</svg>