<?xml version="1.0" encoding="UTF-8"?>
<svg width="35px" height="40px" viewBox="0 0 35 40" version="1.1" xmlns="http://www.w3.org/2000/svg" xmlns:xlink="http://www.w3.org/1999/xlink">
    <!-- Generator: Sketch 48.2 (47327) - http://www.bohemiancoding.com/sketch -->
    <title>pamphlet</title>
    <desc>Created with Sketch.</desc>
    <defs></defs>
    <g id="Desktop-HD-::-Header" stroke="none" stroke-width="1" fill="none" fill-rule="evenodd" transform="translate(-370.000000, -725.000000)">
        <g id="Categories" transform="translate(0.000000, 572.000000)" fill="#60BDC0">
            <path d="M401.264425,185.496998 L394.36786,188.862521 L394.36786,160.502929 L401.264425,157.136946 L401.264425,185.496998 Z M373.218397,160.502929 L380.574732,157.137406 L380.574732,185.497458 L373.218397,188.862981 L373.218397,160.502929 Z M391.149464,188.862521 L383.793129,185.497458 L383.793129,157.137406 L391.149464,160.502929 L391.149464,188.862521 Z M403.852475,153.251422 C403.388566,152.956249 402.863508,152.918548 402.365116,153.151192 L392.653374,157.702465 L382.92784,153.151192 C382.898414,153.137399 382.873587,153.133721 382.843701,153.121767 C382.777954,153.096019 382.716345,153.07487 382.648299,153.057858 C382.58485,153.042226 382.524161,153.029812 382.459793,153.021537 C382.392666,153.013261 382.327379,153.009583 382.259792,153.009583 C382.193126,153.009583 382.128758,153.013261 382.062551,153.021537 C381.997263,153.029353 381.933815,153.042226 381.869447,153.058318 C381.80232,153.07533 381.737952,153.096019 381.673125,153.121307 C381.64278,153.133261 381.610596,153.137399 381.580711,153.151192 L371.042761,158.020626 C370.476782,158.284994 370,158.853271 370,159.47856 L370,191.390802 C370,191.940688 370.395863,192.452873 370.860231,192.748505 C371.122301,192.915402 371.480003,193 371.781612,193 C372.013337,193 372.274947,192.949885 372.491499,192.848735 L382.246919,188.297463 L391.993603,192.848735 C391.995902,192.849655 392.002339,192.850115 392.005097,192.851494 C392.10027,192.895172 392.20096,192.926896 392.30165,192.951264 C392.325098,192.957241 392.349466,192.961839 392.372914,192.966437 C392.474524,192.986207 392.577972,193 392.681421,193 C392.784869,193 392.887858,192.986207 392.989467,192.966437 C393.013375,192.961839 393.036823,192.957241 393.060272,192.951264 C393.160962,192.926896 393.259812,192.895172 393.354985,192.851494 C393.357744,192.850115 393.360502,192.849655 393.362801,192.848735 L403.669486,187.979301 C404.235924,187.714933 404.482821,187.146196 404.482821,186.521368 L404.482821,154.609126 C404.482821,154.05924 404.316844,153.547055 403.852475,153.251422 L403.852475,153.251422 Z" id="pamphlet"></path>
        </g>
    </g>
</svg>