<?xml version="1.0" encoding="UTF-8"?>
<svg width="72px" height="72px" viewBox="0 0 72 72" version="1.1" xmlns="http://www.w3.org/2000/svg" xmlns:xlink="http://www.w3.org/1999/xlink">
    <!-- Generator: Sketch 48.2 (47327) - http://www.bohemiancoding.com/sketch -->
    <title>icn::scroll_green_alt</title>
    <desc>Created with Sketch.</desc>
    <defs></defs>
    <g id="Desktop-HD-::-Header" stroke="none" stroke-width="1" fill="none" fill-rule="evenodd" transform="translate(-685.000000, -584.000000)">
        <g id="icn::scroll_green" transform="translate(689.000000, 588.000000)">
            <g>
                <path d="M63.8592,32 C63.8592,49.5872379 49.5872379,63.8592 32,63.8592 C14.4127621,63.8592 0.1408,49.5872379 0.1408,32 C0.1408,14.4127621 14.4127621,0.1408 32,0.1408 C49.5872379,0.1408 63.8592,14.4127621 63.8592,32 Z" id="Shape" fill="#60BDC0"></path>
                <g id="icn::mouse" transform="translate(19.500000, 12.000000)" stroke="#FFFFFF" stroke-width="3">
                    <path d="M0.107526882,9.65591398 C0.247311828,8.41935484 0.569892473,7.21505376 1.11827957,6.06451613 C2.11827957,3.97849462 3.65591398,2.40860215 5.74193548,1.37634409 C7.40860215,0.559139785 9.17204301,0.182795699 11,0.064516129 C11.1182796,0.0537634409 11.2258065,0.0215053763 11.344086,0.0107526882 L13.3763441,0.0107526882 C14.172043,0.11827957 14.9784946,0.182795699 15.7634409,0.333333333 C17.9354839,0.731182796 19.8924731,1.59139785 21.4946237,3.12903226 C23.1935484,4.76344086 24.172043,6.78494624 24.5268817,9.10752688 C24.6451613,9.86021505 24.688172,10.6344086 24.688172,11.3978495 C24.6989247,13.9139785 24.6989247,16.4408602 24.6989247,18.9569892" id="Shape"></path>
                    <path d="M24.7096774,22.9032258 L24.7096774,28.827957 C24.7096774,30.6236559 24.3870968,32.344086 23.6129032,33.9677419 C22.6129032,36.0430108 21.0967742,37.6129032 19.0107527,38.6236559 C16.6344086,39.7849462 14.0967742,40.0752688 11.483871,39.9784946 C9.50537634,39.9032258 7.58064516,39.5376344 5.78494624,38.6666667 C3.33333333,37.4731183 1.67741935,35.5698925 0.720430108,33.0322581 C0.204301075,31.655914 0.0107526882,30.2150538 0.0107526882,28.7419355 L0.0107526882,12.0430108" id="Shape"></path>
                    <path d="M10.7311828,10.516129 C10.7311828,11.0860215 10.7204301,11.655914 10.7311828,12.2365591 C10.7526882,13.2150538 11.4301075,13.9247312 12.344086,13.9354839 C13.2795699,13.9462366 13.9892473,13.2365591 14,12.2365591 C14.0107527,11.1182796 14.0107527,10 14,8.88172043 C13.9892473,7.90322581 13.3010753,7.19354839 12.3870968,7.1827957 C11.4516129,7.17204301 10.7526882,7.89247312 10.7311828,8.88172043 C10.7204301,9.43010753 10.7311828,9.96774194 10.7311828,10.516129 Z" id="Shape"></path>
                </g>
            </g>
        </g>
    </g>
</svg>